<svg width="190" height="46" viewBox="0 0 190 46" fill="none" xmlns="http://www.w3.org/2000/svg">
<path d="M55.377 22.6C55.377 20.952 55.745 19.48 56.481 18.184C57.233 16.872 58.249 15.856 59.529 15.136C60.825 14.4 62.273 14.032 63.873 14.032C65.745 14.032 67.385 14.512 68.793 15.472C70.201 16.432 71.185 17.76 71.745 19.456H67.881C67.497 18.656 66.953 18.056 66.249 17.656C65.561 17.256 64.761 17.056 63.849 17.056C62.873 17.056 62.001 17.288 61.233 17.752C60.481 18.2 59.889 18.84 59.457 19.672C59.041 20.504 58.833 21.48 58.833 22.6C58.833 23.704 59.041 24.68 59.457 25.528C59.889 26.36 60.481 27.008 61.233 27.472C62.001 27.92 62.873 28.144 63.849 28.144C64.761 28.144 65.561 27.944 66.249 27.544C66.953 27.128 67.497 26.52 67.881 25.72H71.745C71.185 27.432 70.201 28.768 68.793 29.728C67.401 30.672 65.761 31.144 63.873 31.144C62.273 31.144 60.825 30.784 59.529 30.064C58.249 29.328 57.233 28.312 56.481 27.016C55.745 25.72 55.377 24.248 55.377 22.6ZM80.6149 16.96V21.16H86.2549V23.824H80.6149V28.264H86.9749V31H77.2549V14.224H86.9749V16.96H80.6149ZM101.308 31L97.6123 24.472H96.0283V31H92.6683V14.248H98.9563C100.252 14.248 101.356 14.48 102.268 14.944C103.18 15.392 103.86 16.008 104.308 16.792C104.772 17.56 105.004 18.424 105.004 19.384C105.004 20.488 104.684 21.488 104.044 22.384C103.404 23.264 102.452 23.872 101.188 24.208L105.196 31H101.308ZM96.0283 21.952H98.8363C99.7483 21.952 100.428 21.736 100.876 21.304C101.324 20.856 101.548 20.24 101.548 19.456C101.548 18.688 101.324 18.096 100.876 17.68C100.428 17.248 99.7483 17.032 98.8363 17.032H96.0283V21.952ZM122.083 14.248V16.96H117.619V31H114.259V16.96H109.795V14.248H122.083ZM130.535 14.248V31H127.175V14.248H130.535ZM146.839 14.248V16.96H139.855V21.256H145.207V23.92H139.855V31H136.495V14.248H146.839ZM165.181 14.248L159.517 25.168V31H156.157V25.168L150.469 14.248H154.261L157.861 21.904L161.437 14.248H165.181Z" fill="#2E2E2E"/>
<g clip-path="url(#clip0_402_25129)">
<path d="M17.8206 3.52434C20.9221 3.38104 23.7766 3.77959 26.3917 4.71404C23.912 3.23176 21.4978 1.62558 19.0746 0C16.3078 1.82113 13.5515 3.66018 10.6865 5.32308C12.9297 4.2722 15.3484 3.63779 17.8206 3.52434V3.52434Z" fill="#2E2E2E"/>
<path d="M24.6762 28.2335C23.6008 26.8961 22.5342 25.5511 21.4513 24.2196C20.1185 22.5821 19.0713 22.2163 18.0985 23.1359C16.7761 24.3853 17.6106 25.466 18.4689 26.5288C21.6298 30.4428 24.7714 34.3731 27.9428 38.2781C28.096 38.4662 28.2552 38.6498 28.4218 38.8334C29.3604 37.9691 30.2172 37.0541 30.9937 36.0898C28.8443 33.4178 26.7602 30.8264 24.6777 28.2365L24.6762 28.2335Z" fill="#2E2E2E"/>
<path d="M8.19322 6.70532C5.60197 8.06819 2.89767 9.25192 0 10.1207C0.229077 11.7522 0.441791 13.3719 0.655993 14.981C2.40382 11.6134 5.05011 8.73693 8.19322 6.70532Z" fill="#2E2E2E"/>
<path d="M35.8296 11.6209C36.4127 12.3389 36.9928 13.0599 37.5715 13.7809C37.7336 12.5822 37.8526 11.3731 37.9999 10.1133C35.8177 9.4296 33.7381 8.58023 31.7285 7.61145C33.1952 8.72353 34.5622 10.0595 35.8296 11.6209Z" fill="#2E2E2E"/>
<path d="M6.49136 20.6296C6.82158 19.5981 7.82119 16.6081 10.6638 14.2123C14.4644 11.0089 19.9459 10.2192 24.2076 11.9374C26.0477 12.6778 27.7524 13.857 29.1759 15.4722C31.5902 18.2098 33.8794 21.0624 36.1152 23.9539C36.3814 22.4238 36.6061 20.8863 36.8173 19.3443C35.4279 17.5799 34.0803 15.8677 32.7296 14.1586C30.4254 11.2403 27.5322 9.18479 23.9443 8.16227C21.6402 7.50546 19.2974 7.35171 17.0393 7.65474C12.9338 8.20406 8.05027 10.5417 5.03062 15.2527C4.03101 16.8111 1.52009 21.3058 2.53904 26.5856C3.21585 30.089 5.15111 32.4027 8.75238 36.7107C9.40986 37.4974 11.1026 39.4648 13.6136 41.6845C15.7035 43.5325 17.673 44.9476 19.3018 46.0015C16.6228 42.9101 14.3439 40.1769 12.5158 37.9408C7.60848 31.937 6.48987 30.1756 6.01238 27.5737C5.43225 24.4032 6.12989 21.7521 6.48987 20.631L6.49136 20.6296Z" fill="#2E2E2E"/>
<path d="M26.842 18.8935C23.2824 14.5198 17.4975 13.8212 13.3161 17.2306C9.22243 20.5669 8.70478 26.3691 12.1632 30.7339C15.1784 34.5388 18.2516 38.2975 21.2966 42.0801C21.6506 42.5205 21.9898 42.9757 22.5074 43.6534C23.452 42.9101 24.3936 42.1682 25.3277 41.4188C21.6848 36.963 18.0285 32.5162 14.5091 27.9633C12.5619 25.4451 13.206 21.7551 15.6619 19.8429C18.0657 17.9725 21.6506 18.2069 23.6573 20.6161C26.9417 24.5584 30.1354 28.5784 33.3142 32.6087C33.9538 31.4354 34.4923 30.2024 34.9311 28.9142C32.2357 25.5735 29.5523 22.2238 26.842 18.8935V18.8935Z" fill="#2E2E2E"/>
</g>
<defs>
<clipPath id="clip0_402_25129">
<rect width="38" height="46" fill="white"/>
</clipPath>
</defs>
</svg>
