<svg width="104" height="130" viewBox="0 0 104 130" fill="none" xmlns="http://www.w3.org/2000/svg">
<path d="M95.1392 58.2195C94.6728 53.777 93.5069 49.5684 91.8746 45.5936C90.4755 41.8525 88.6101 38.5792 86.0451 35.3058C86.0451 35.3058 86.0451 35.3058 86.0451 35.072L79.2827 34.1367C79.2827 34.1367 80.915 36.0072 82.0809 37.8777C86.045 43.4892 88.6101 49.8022 89.776 56.3489C89.776 56.5828 89.776 56.8166 90.0092 57.0504C91.4083 62.4281 95.1392 62.6619 95.1392 62.6619C95.1392 62.6619 95.1392 61.0252 95.1392 58.6871C95.1392 58.4533 95.1392 58.4533 95.1392 58.2195Z" fill="#F7D57E"/>
<path d="M88.6099 25.953C87.444 25.953 86.2781 25.7192 85.1121 25.4854L84.4126 30.3954V30.6292C86.2781 30.8631 88.3767 31.0969 90.2422 31.3307V32.9674L91.6413 35.0717L95.3722 41.8523V26.6544C93.0404 26.4206 89.7758 25.953 88.6099 25.953Z" fill="#F7D57E"/>
<path d="M63.8926 82.5361C63.193 84.1728 62.4935 85.8095 61.7939 87.4462C65.0585 90.4858 68.7895 92.8239 76.4845 96.5649C77.1841 96.7987 79.0495 97.5002 81.1482 98.4354C82.0809 97.0325 83.0137 95.6297 83.9464 94.2268C81.8478 93.5253 79.7491 92.5901 79.2827 92.3563C74.1527 90.4858 68.0899 86.2771 63.8926 82.5361Z" fill="#F7D57E"/>
<path d="M66.9238 71.7808C66.4574 73.6513 65.991 75.5218 65.5247 77.3923C69.722 82.77 75.3184 86.511 81.6143 88.3815C82.3139 88.6153 84.1794 89.0829 86.5112 89.5505C87.2108 87.9139 87.9103 86.511 88.6099 84.8743C86.278 84.4067 84.1794 83.939 83.713 83.939C78.3498 82.3023 72.287 78.5613 66.9238 71.7808Z" fill="#F7D57E"/>
<path d="M64.3587 106.385C66.6906 104.515 69.722 101.241 71.5874 99.1368L67.3901 96.3311C65.5247 98.2016 63.1928 100.773 61.0942 102.41L59.6951 103.579L64.3587 106.385Z" fill="#F7D57E"/>
<path d="M54.332 56.5829L49.202 56.3491C48.5024 81.1333 35.4441 91.4211 27.9822 96.0973C27.5159 96.3311 25.4172 97.734 23.7849 98.6693C24.7176 100.072 25.8836 101.475 27.0495 102.644L28.915 101.475C29.6145 101.007 30.3141 100.54 31.2468 100.072C38.9419 95.1621 53.6324 83.7052 54.332 56.5829Z" fill="#F7D57E"/>
<path d="M64.592 107.554C60.6279 109.892 56.4306 111.996 52.2333 113.633C52.2333 113.633 52.2333 113.633 52.0001 113.633C50.601 113.165 49.4351 112.464 48.036 111.996C52.4665 108.021 58.9956 102.176 61.3275 98.435L57.3633 95.3955L57.1302 95.6293C55.4979 98.435 48.9687 104.514 43.3723 109.424C43.3723 109.424 43.3723 109.424 43.1391 109.658C41.9732 109.19 41.0405 108.489 40.1077 107.788C40.1077 107.788 40.1077 107.788 40.3409 107.788C44.7714 104.748 48.5024 101.007 51.7669 96.5645C55.7311 91.1868 58.7624 85.1077 60.6279 78.5609C62.027 74.3523 63.1929 69.9099 63.8925 65.7012C64.3589 62.194 65.0584 53.3091 60.6279 47.9314C58.5293 45.5933 55.4979 44.1904 52.2333 44.4242C46.6369 44.4242 43.6055 47.6976 41.74 51.9063C39.8745 56.1149 39.4082 61.2588 38.9418 64.766C38.9418 65.935 38.7086 66.6365 38.7086 67.5717C37.7759 76.2228 28.6817 83.471 22.6189 87.6796C22.1526 88.1473 20.2871 89.0825 18.4216 90.2516C19.1212 91.6545 20.0539 93.0573 20.9867 94.4602C22.8521 93.2911 24.4844 92.1221 25.184 91.8883C32.6458 86.9782 42.4396 78.5609 43.8387 68.2732C43.8387 67.3379 44.0719 66.4027 44.305 65.2336C45.2378 57.0501 46.4037 49.3343 52.4665 49.3343C54.0988 49.3343 55.9642 50.0357 57.1302 51.2048C59.6952 54.2444 59.9284 60.3235 59.2288 64.766C58.5293 68.7408 57.5965 72.9494 56.1974 76.6904C54.5651 82.5357 51.7669 88.1473 48.2692 93.2911C44.7714 97.7336 40.5741 101.475 36.1436 104.28C36.1436 104.28 35.9104 104.28 35.9104 104.514C33.3454 106.151 31.4799 107.32 31.4799 107.32C31.4799 107.32 31.7131 107.32 31.9463 107.554C32.6458 108.255 34.2781 109.424 35.2109 110.126C37.5427 111.762 39.8745 113.165 42.2064 114.1L43.1391 114.568C45.471 115.737 49.9015 117.374 53.166 118.543C59.9284 115.503 69.4889 109.892 74.8521 105.917L71.8207 101.708C69.9553 103.579 66.2243 106.618 64.592 107.554Z" fill="#F7D57E"/>
<path d="M73.9194 56.349C73.453 50.9713 71.3544 46.0612 67.6234 42.3202C62.7266 37.644 55.9642 35.3058 49.2019 36.0073C40.5741 37.1763 34.5113 44.6583 31.4799 51.4389C30.0808 54.7123 29.3813 58.4533 28.9149 61.9605C28.6817 62.8958 28.6817 64.0648 28.4486 65.0001C27.2826 71.0792 24.0181 75.7555 18.6548 79.7303C18.1885 80.1979 16.323 81.1332 14.4575 82.3022C15.1571 83.9389 15.6234 85.3418 16.323 86.9785C18.1885 85.8094 19.8207 84.8742 20.5203 84.4065C27.2826 79.9641 31.4799 73.885 32.879 66.1691C33.1122 65.0001 33.3454 64.0648 33.3454 62.8958C33.8118 59.6224 34.5113 56.5828 35.6773 53.5432C38.0091 48.1655 42.906 41.8526 49.2019 41.1512C54.332 40.6835 59.462 42.554 63.4261 46.0612C66.2243 49.1008 67.8566 53.0756 68.323 57.0504C69.7221 70.144 75.5517 77.626 85.5786 79.4965C86.045 79.4965 88.1436 79.9641 90.4755 80.1979C91.175 78.5612 91.6414 77.1583 92.1077 75.5217C89.7759 75.2878 87.6773 75.054 87.4441 74.8202C81.3813 73.6512 75.3185 69.9101 73.9194 56.349Z" fill="#F7D57E"/>
<path d="M86.2782 63.1294C84.6459 61.2589 83.9464 58.4531 83.7132 54.9459C83.48 52.374 82.7805 49.802 81.8477 47.4639C81.1482 45.1258 79.9823 43.0214 78.8163 40.9171C76.0181 36.0071 71.8208 31.7984 66.6908 28.9927C65.0585 28.2912 63.4262 27.5898 61.7939 27.1222L60.3948 26.6545C52.4666 23.8488 43.6056 25.0178 36.8433 29.9279C27.7491 35.7732 21.2199 46.2948 20.5204 55.6473C19.8208 63.597 17.7222 67.8056 15.8567 70.1437C15.1572 70.8452 13.2917 72.4819 11.8926 73.4171C12.3589 75.0538 12.8253 76.6905 13.5249 78.561C15.1572 77.3919 17.0226 75.9891 17.489 75.7553C20.9867 73.4171 24.9509 68.0394 25.8836 56.3488C26.35 49.802 31.48 40.2157 40.1078 34.6042C45.7042 30.6294 52.9329 29.6941 59.2289 31.7984L60.628 32.266C62.0271 32.7337 63.4262 33.2013 64.8253 33.9027C69.0226 36.2409 72.5204 39.7481 74.8522 43.9567C75.785 45.8272 76.7177 47.6977 77.4172 49.5682C78.1168 51.6725 78.8163 53.7768 79.0495 55.8812C79.0495 59.856 80.4486 63.8308 83.0136 66.8704C84.6459 68.5071 86.7446 69.6761 88.8433 70.3776C89.3096 70.3776 91.4083 70.6114 93.7401 70.8452C94.2065 69.2085 94.4397 67.5718 94.906 65.7013C92.5742 65.4675 90.4755 65.4675 90.2424 65.2337C88.3769 64.766 87.211 64.0646 86.2782 63.1294Z" fill="#F7D57E"/>
<path d="M13.9911 57.9856C14.9239 51.2051 17.4889 44.6583 21.2198 38.813L24.2512 34.1367L17.9553 34.6043C16.323 37.1763 13.7579 41.3849 12.592 44.4245C10.9597 48.3993 9.56064 52.8418 8.86108 57.0504C9.09427 61.4928 10.2602 67.572 10.2602 67.572C10.2602 67.572 13.7579 62.8957 13.9911 57.9856Z" fill="#F7D57E"/>
<path d="M12.8252 35.3057C12.8252 35.5395 12.8252 35.5395 12.8252 35.3057L13.7579 33.669V31.3309C23.5516 30.8633 32.879 28.2913 41.5068 23.6151C45.2377 21.7446 48.7355 19.4065 52.0001 16.6007C53.3992 17.7698 54.7983 18.9388 56.1974 19.8741C61.5606 23.6151 67.3902 26.4208 73.453 28.2913L73.6862 27.8237L75.3185 23.6151C70.6548 22.2122 65.9911 20.1079 61.7938 17.5359C61.7938 17.5359 61.7938 17.5359 61.5606 17.5359C59.462 16.1331 55.0315 13.0935 52.0001 10.7554C47.5696 14.0288 41.5068 18.4712 37.5427 20.3417C35.9104 21.0431 34.5113 21.7446 32.879 22.446C32.4126 22.6798 31.7131 22.9136 31.2467 23.1475C27.2826 24.5503 23.0853 25.4856 18.4216 25.9532C16.7893 26.187 12.1256 26.6547 9.09424 26.8885V43.0216L12.8252 35.3057Z" fill="#F7D57E"/>
</svg>
