<svg width="165" height="27" viewBox="0 0 165 27" fill="none" xmlns="http://www.w3.org/2000/svg">
<path d="M0.0655496 13.4C0.0655496 10.928 0.61755 8.72 1.72155 6.776C2.84955 4.808 4.37355 3.284 6.29355 2.204C8.23755 1.1 10.4096 0.547999 12.8096 0.547999C15.6176 0.547999 18.0776 1.268 20.1896 2.708C22.3016 4.148 23.7776 6.14 24.6175 8.684H18.8216C18.2456 7.484 17.4296 6.584 16.3736 5.984C15.3416 5.384 14.1416 5.084 12.7736 5.084C11.3096 5.084 10.0016 5.432 8.84955 6.128C7.72155 6.8 6.83355 7.76 6.18555 9.008C5.56155 10.256 5.24955 11.72 5.24955 13.4C5.24955 15.056 5.56155 16.52 6.18555 17.792C6.83355 19.04 7.72155 20.012 8.84955 20.708C10.0016 21.38 11.3096 21.716 12.7736 21.716C14.1416 21.716 15.3416 21.416 16.3736 20.816C17.4296 20.192 18.2456 19.28 18.8216 18.08H24.6175C23.7776 20.648 22.3016 22.652 20.1896 24.092C18.1016 25.508 15.6416 26.216 12.8096 26.216C10.4096 26.216 8.23755 25.676 6.29355 24.596C4.37355 23.492 2.84955 21.968 1.72155 20.024C0.61755 18.08 0.0655496 15.872 0.0655496 13.4ZM37.9224 4.94V11.24H46.3824V15.236H37.9224V21.896H47.4624V26H32.8824V0.835998H47.4624V4.94H37.9224ZM68.9625 26L63.4185 16.208H61.0425V26H56.0025V0.872H65.4345C67.3785 0.872 69.0345 1.22 70.4025 1.916C71.7705 2.588 72.7905 3.512 73.4625 4.688C74.1585 5.84 74.5065 7.136 74.5065 8.576C74.5065 10.232 74.0265 11.732 73.0665 13.076C72.1065 14.396 70.6785 15.308 68.7825 15.812L74.7945 26H68.9625ZM61.0425 12.428H65.2545C66.6225 12.428 67.6425 12.104 68.3145 11.456C68.9865 10.784 69.3225 9.86 69.3225 8.684C69.3225 7.532 68.9865 6.644 68.3145 6.02C67.6425 5.372 66.6225 5.048 65.2545 5.048H61.0425V12.428ZM100.125 0.872V4.94H93.429V26H88.389V4.94H81.693V0.872H100.125ZM112.802 0.872V26H107.762V0.872H112.802ZM137.258 0.872V4.94H126.782V11.384H134.81V15.38H126.782V26H121.742V0.872H137.258ZM164.772 0.872L156.276 17.252V26H151.236V17.252L142.704 0.872H148.392L153.792 12.356L159.156 0.872H164.772Z" fill="#F6F6F6"/>
</svg>
