<svg width="45" height="56" viewBox="0 0 45 56" fill="none" xmlns="http://www.w3.org/2000/svg">
<path d="M41.1657 25.0792C40.9639 23.1655 40.4594 21.3526 39.7531 19.6403C39.1477 18.0288 38.3406 16.6187 37.2307 15.2087C37.2307 15.2087 37.2307 15.2087 37.2307 15.108L34.3047 14.7051C34.3047 14.7051 35.011 15.5108 35.5155 16.3166C37.2307 18.7339 38.3406 21.4533 38.845 24.2734C38.845 24.3741 38.845 24.4749 38.9459 24.5756C39.5513 26.8921 41.1657 26.9928 41.1657 26.9928C41.1657 26.9928 41.1657 26.2878 41.1657 25.2806C41.1657 25.1799 41.1657 25.1799 41.1657 25.0792Z" fill="#2E2E2E"/>
<path d="M38.3406 11.1797C37.8361 11.1797 37.3316 11.079 36.8271 10.9783L36.5244 13.0934V13.1941C37.3316 13.2948 38.2397 13.3955 39.0468 13.4963V14.2013L39.6522 15.1078L41.2666 18.0286V11.4819C40.2576 11.3811 38.845 11.1797 38.3406 11.1797Z" fill="#2E2E2E"/>
<path d="M27.6459 35.554C27.3432 36.259 27.0405 36.964 26.7378 37.6691C28.1503 38.9784 29.7647 39.9856 33.0943 41.5971C33.397 41.6978 34.2042 42 35.1122 42.4029C35.5158 41.7986 35.9194 41.1942 36.323 40.5899C35.4149 40.2878 34.5069 39.8849 34.3051 39.7842C32.0853 38.9784 29.462 37.1655 27.6459 35.554Z" fill="#2E2E2E"/>
<path d="M28.9574 30.9209C28.7556 31.7267 28.5538 32.5324 28.3521 33.3382C30.1682 35.6547 32.5897 37.2662 35.3139 38.072C35.6166 38.1727 36.4238 38.3741 37.4328 38.5756C37.7355 37.8705 38.0381 37.2662 38.3408 36.5612C37.3319 36.3597 36.4238 36.1583 36.222 36.1583C33.9014 35.4533 31.2781 33.8418 28.9574 30.9209Z" fill="#2E2E2E"/>
<path d="M27.8475 45.8273C28.8565 45.0215 30.1682 43.6114 30.9753 42.705L29.1592 41.4963C28.352 42.3021 27.343 43.41 26.435 44.115L25.8296 44.6186L27.8475 45.8273Z" fill="#2E2E2E"/>
<path d="M23.509 24.3742L21.2893 24.2734C20.9866 34.9497 15.3363 39.3813 12.1076 41.3957C11.9059 41.4965 10.9978 42.1008 10.2915 42.5037C10.6951 43.108 11.1996 43.7123 11.7041 44.2159L12.5112 43.7123C12.8139 43.5108 13.1166 43.3094 13.5202 43.108C16.8498 40.9929 23.2063 36.0576 23.509 24.3742Z" fill="#2E2E2E"/>
<path d="M27.9483 46.3309C26.233 47.3381 24.4169 48.2445 22.6007 48.9496C22.6007 48.9496 22.6007 48.9496 22.4999 48.9496C21.8945 48.7481 21.39 48.446 20.7846 48.2446C22.7016 46.5323 25.5268 44.0143 26.5357 42.4028L24.8205 41.0935L24.7196 41.1942C24.0133 42.4028 21.1882 45.0215 18.7667 47.1366C18.7667 47.1366 18.7667 47.1366 18.6658 47.2374C18.1613 47.0359 17.7577 46.7338 17.3541 46.4316C17.3541 46.4316 17.3541 46.4316 17.455 46.4316C19.372 45.1222 20.9864 43.5107 22.399 41.5971C24.1142 39.2805 25.4259 36.6618 26.233 33.8417C26.8384 32.0287 27.3429 30.1151 27.6456 28.3021C27.8474 26.7913 28.1501 22.964 26.233 20.6474C25.325 19.6402 24.0133 19.0359 22.6007 19.1366C20.1792 19.1366 18.8676 20.5467 18.0604 22.3597C17.2532 24.1726 17.0514 26.3884 16.8496 27.8992C16.8496 28.4028 16.7487 28.705 16.7487 29.1079C16.3451 32.8345 12.4102 35.9568 9.78685 37.7697C9.58505 37.9712 8.77788 38.374 7.9707 38.8776C8.27339 39.482 8.67698 40.0863 9.08057 40.6906C9.88774 40.187 10.594 39.6834 10.8967 39.5827C14.1254 37.4676 18.3631 33.8417 18.9685 29.41C18.9685 29.0071 19.0694 28.6043 19.1703 28.1007C19.5738 24.5755 20.0783 21.2517 22.7016 21.2517C23.4079 21.2517 24.2151 21.5539 24.7196 22.0575C25.8294 23.3669 25.9303 25.9856 25.6277 27.8992C25.325 29.6115 24.9214 31.4244 24.316 33.0359C23.6097 35.5539 22.399 37.9712 20.8855 40.187C19.372 42.1007 17.5559 43.7122 15.6389 44.9208C15.6389 44.9208 15.538 44.9208 15.538 45.0215C14.4281 45.7266 13.6209 46.2302 13.6209 46.2302C13.6209 46.2302 13.7218 46.2302 13.8227 46.3309C14.1254 46.633 14.8317 47.1366 15.2353 47.4388C16.2442 48.1438 17.2532 48.7481 18.2622 49.151L18.6658 49.3525C19.6747 49.8561 21.5918 50.5611 23.0043 51.0647C25.9303 49.7553 30.0671 47.3381 32.3877 45.6258L31.0761 43.8129C30.2689 44.6187 28.6546 45.928 27.9483 46.3309Z" fill="#2E2E2E"/>
<path d="M31.9841 24.2734C31.7823 21.9568 30.8742 19.8417 29.2599 18.2302C27.141 16.2158 24.215 15.2086 21.289 15.5108C17.5558 16.0144 14.9325 19.2374 13.6208 22.1583C13.0155 23.5683 12.7128 25.1798 12.511 26.6906C12.4101 27.0935 12.4101 27.5971 12.3092 28C11.8047 30.6187 10.3921 32.6331 8.07151 34.3453C7.86972 34.5467 7.06255 34.9496 6.25537 35.4532C6.55806 36.1583 6.75986 36.7626 7.06255 37.4676C7.86972 36.964 8.576 36.5611 8.87869 36.3597C11.8047 34.446 13.6208 31.8273 14.2262 28.5036C14.3271 28 14.428 27.5971 14.428 27.0935C14.6298 25.6834 14.9325 24.3741 15.437 23.0647C16.446 20.7482 18.5648 18.0288 21.289 17.7266C23.5087 17.5252 25.7285 18.3309 27.4437 19.8417C28.6545 21.1511 29.3608 22.8633 29.5625 24.5755C30.1679 30.2158 32.6904 33.4388 37.0289 34.2446C37.2307 34.2446 38.1388 34.446 39.1478 34.5467C39.4504 33.8417 39.6522 33.2374 39.854 32.5324C38.8451 32.4316 37.937 32.3309 37.8361 32.2302C35.2128 31.7266 32.5895 30.1151 31.9841 24.2734Z" fill="#2E2E2E"/>
<path d="M37.3316 27.1942C36.6253 26.3885 36.3226 25.1799 36.2217 23.6691C36.1208 22.5611 35.8182 21.4532 35.4146 20.446C35.1119 19.4388 34.6074 18.5324 34.1029 17.6259C32.8921 15.5108 31.076 13.6978 28.8563 12.4892C28.15 12.187 27.4437 11.8849 26.7374 11.6834L26.1321 11.482C22.7016 10.2734 18.8675 10.777 15.9415 12.8921C12.0065 15.4101 9.18138 19.9424 8.87869 23.9712C8.576 27.3957 7.66793 29.2086 6.86075 30.2158C6.55806 30.518 5.75089 31.223 5.14551 31.6259C5.3473 32.3309 5.5491 33.036 5.85179 33.8417C6.55806 33.3381 7.36524 32.7338 7.56703 32.6331C9.08049 31.6259 10.7957 29.3093 11.1993 24.2734C11.4011 21.4532 13.6208 17.3237 17.354 14.9065C19.7756 13.1942 22.9034 12.7914 25.6276 13.6978L26.233 13.8993C26.8383 14.1007 27.4437 14.3022 28.0491 14.6043C29.8652 15.6115 31.3787 17.1223 32.3877 18.9352C32.7912 19.741 33.1948 20.5468 33.4975 21.3525C33.8002 22.259 34.1029 23.1655 34.2038 24.0719C34.2038 25.7842 34.8092 27.4964 35.919 28.8058C36.6253 29.5108 37.5334 30.0144 38.4415 30.3165C38.6433 30.3165 39.5513 30.4173 40.5603 30.518C40.7621 29.8129 40.863 29.1079 41.0648 28.3022C40.0558 28.2014 39.1478 28.2014 39.0469 28.1007C38.2397 27.8993 37.7352 27.5971 37.3316 27.1942Z" fill="#2E2E2E"/>
<path d="M6.05372 24.9785C6.4573 22.0576 7.56717 19.2375 9.18152 16.7195L10.4932 14.7051L7.76896 14.9065C7.06268 16.0144 5.95282 17.8274 5.44833 19.1367C4.74206 20.849 4.13668 22.7626 3.83398 24.5756C3.93488 26.4892 4.43937 29.108 4.43937 29.108C4.43937 29.108 5.95282 27.0936 6.05372 24.9785Z" fill="#2E2E2E"/>
<path d="M5.54941 15.2086C5.54941 15.3093 5.54941 15.3093 5.54941 15.2086L5.953 14.5036V13.4964C10.1907 13.2949 14.2265 12.187 17.9597 10.1726C19.5741 9.36687 21.0875 8.35968 22.5001 7.15104C23.1055 7.65464 23.7108 8.15824 24.3162 8.56111C26.6369 10.1726 29.1593 11.3813 31.7826 12.187L31.8835 11.9856L32.5898 10.1726C30.5718 9.56831 28.5539 8.66183 26.7378 7.55392C26.7378 7.55392 26.7378 7.55392 26.6369 7.55392C25.7288 6.9496 23.8117 5.64025 22.5001 4.63306C20.583 6.04313 17.9597 7.9568 16.2445 8.76255C15.5382 9.06471 14.9328 9.36687 14.2265 9.66903C14.0247 9.76975 13.7221 9.87047 13.5203 9.97119C11.805 10.5755 9.98887 10.9784 7.97093 11.1798C7.26466 11.2805 5.24672 11.482 3.93506 11.5827V18.5323L5.54941 15.2086Z" fill="#2E2E2E"/>
</svg>
