<svg width="65" height="78" viewBox="0 0 65 78" fill="none" xmlns="http://www.w3.org/2000/svg">
<g clip-path="url(#clip0_266_25384)">
<path d="M30.4824 5.97605C35.7875 5.73306 40.6703 6.40888 45.1434 7.99338C40.9018 5.47995 36.7722 2.75643 32.6273 0C27.8947 3.08801 23.1799 6.20639 18.2793 9.02609C22.1163 7.24416 26.2535 6.16842 30.4824 5.97605V5.97605Z" fill="#7EBBCD"/>
<path d="M42.2095 47.8741C40.3699 45.6062 38.5455 43.3257 36.6932 41.0679C34.4134 38.2912 32.6221 37.6711 30.958 39.2303C28.6961 41.3488 30.1235 43.1814 31.5916 44.9836C36.9985 51.6203 42.3724 58.2848 47.7971 64.9063C48.0592 65.2252 48.3314 65.5365 48.6164 65.8479C50.2219 64.3823 51.6875 62.8307 53.0157 61.1956C49.339 56.6648 45.7743 52.2708 42.2121 47.8792L42.2095 47.8741Z" fill="#7EBBCD"/>
<path d="M14.0147 11.3701C9.58232 13.6811 4.95655 15.6883 0 17.1614C0.391842 19.9279 0.755696 22.6742 1.12209 25.4028C4.1118 19.6925 8.63834 14.815 14.0147 11.3701Z" fill="#7EBBCD"/>
<path d="M61.2875 19.7049C62.2849 20.9224 63.2772 22.145 64.267 23.3675C64.5443 21.335 64.7479 19.2848 64.9998 17.1485C61.2671 15.9892 57.71 14.549 54.2725 12.9062C56.7813 14.792 59.1196 17.0573 61.2875 19.7049Z" fill="#7EBBCD"/>
<path d="M11.1035 34.9807C11.6684 33.2317 13.3782 28.1618 18.2406 24.0993C24.7416 18.6674 34.1179 17.3284 41.4077 20.2418C44.5551 21.4972 47.471 23.4969 49.906 26.2356C54.0357 30.8777 57.9515 35.7147 61.7758 40.6176C62.2313 38.0231 62.6155 35.416 62.9768 32.8014C60.6003 29.8095 58.295 26.9063 55.9847 24.0081C52.0434 19.0597 47.0945 15.5743 40.9573 13.8405C37.016 12.7268 33.0085 12.4661 29.146 12.9799C22.1234 13.9114 13.7701 17.8752 8.60487 25.8635C6.89501 28.506 2.60001 36.1273 4.34295 45.08C5.50066 51.0206 8.81097 54.9439 14.971 62.2488C16.0957 63.5827 18.9912 66.9188 23.2862 70.6826C26.8611 73.8162 30.23 76.2157 33.0161 78.0027C28.4336 72.7607 24.5355 68.1261 21.4084 64.3345C13.0144 54.1542 11.101 51.1674 10.2842 46.7556C9.29186 41.3794 10.4852 36.8841 11.101 34.9832L11.1035 34.9807Z" fill="#7EBBCD"/>
<path d="M45.9146 32.0369C39.8257 24.6206 29.9304 23.4361 22.7781 29.2172C15.7758 34.8743 14.8903 44.7129 20.8061 52.114C25.9637 58.5659 31.2205 64.9394 36.4289 71.3533C37.0345 72.1 37.6146 72.872 38.5001 74.0211C40.1158 72.7606 41.7264 71.5027 43.3243 70.232C37.093 62.6765 30.8388 55.1362 24.8187 47.4162C21.488 43.1462 22.5898 36.8891 26.7906 33.6467C30.9024 30.4752 37.0345 30.8726 40.4669 34.9579C46.085 41.6426 51.5479 48.459 56.9854 55.2932C58.0795 53.3037 59.0006 51.2129 59.7512 49.0285C55.1407 43.3638 50.5505 37.6839 45.9146 32.0369V32.0369Z" fill="#7EBBCD"/>
</g>
<defs>
<clipPath id="clip0_266_25384">
<rect width="65" height="78" fill="white"/>
</clipPath>
</defs>
</svg>
